<svg id="visual" viewBox="0 0 1920 1280" width="1920" height="1280" xmlns="http://www.w3.org/2000/svg" xmlns:xlink="http://www.w3.org/1999/xlink" version="1.1"><rect x="0" y="0" width="1920" height="1280" fill="#FFFFFF"></rect><path d="M0 1006L45.7 1022.3C91.3 1038.7 182.7 1071.3 274.2 1085.5C365.7 1099.7 457.3 1095.3 548.8 1076.7C640.3 1058 731.7 1025 823 1017.7C914.3 1010.3 1005.7 1028.7 1097 1040.3C1188.3 1052 1279.7 1057 1371.2 1074.2C1462.7 1091.3 1554.3 1120.7 1645.8 1131.2C1737.3 1141.7 1828.7 1133.3 1874.3 1129.2L1920 1125L1920 1281L1874.3 1281C1828.7 1281 1737.3 1281 1645.8 1281C1554.3 1281 1462.7 1281 1371.2 1281C1279.7 1281 1188.3 1281 1097 1281C1005.7 1281 914.3 1281 823 1281C731.7 1281 640.3 1281 548.8 1281C457.3 1281 365.7 1281 274.2 1281C182.7 1281 91.3 1281 45.7 1281L0 1281Z" fill="#001122" stroke-linecap="round" stroke-linejoin="miter"></path></svg>