<?xml version="1.0" encoding="utf-8"?>
<!-- Generator: Adobe Illustrator 24.0.1, SVG Export Plug-In . SVG Version: 6.00 Build 0)  -->
<svg version="1.1" id="Layer_1" xmlns="http://www.w3.org/2000/svg" xmlns:xlink="http://www.w3.org/1999/xlink" x="0px" y="0px"
	 viewBox="0 0 32 26" style="enable-background:new 0 0 32 26;" xml:space="preserve">
<style type="text/css">
	.st0{fill:#003755;}
</style>
<path class="st0" d="M3,10h18.8L17,5.2c-1.2-1.2-1.2-3.1,0-4.2c1.2-1.2,3.1-1.2,4.2,0l9.9,9.9c1.2,1.2,1.2,3.1,0,4.2L21.2,25
	c-0.6,0.6-1.4,0.9-2.1,0.9S17.6,25.6,17,25c-1.2-1.2-1.2-3.1,0-4.2l4.8-4.8H3c-1.7,0-3-1.3-3-3C0,11.3,1.3,10,3,10z"/>
</svg>
