<?xml version="1.0" encoding="utf-8"?>
<!-- Generator: Adobe Illustrator 23.1.1, SVG Export Plug-In . SVG Version: 6.00 Build 0)  -->
<svg version="1.1" id="Capa_1" xmlns="http://www.w3.org/2000/svg" xmlns:xlink="http://www.w3.org/1999/xlink" x="0px" y="0px"
	 viewBox="0 0 104 60" style="enable-background:new 0 0 104 60;" xml:space="preserve">
<style type="text/css">
	.st0{fill:#FFFFFF;}
</style>
<g id="ESP">
	<path id="_x32_" class="st0" d="M74,60H30C13.4,60,0,46.6,0,30l0,0C0,13.4,13.4,0,30,0h44c16.6,0,30,13.4,30,30l0,0
		C104,46.6,90.6,60,74,60z"/>
	<g id="_x31_">
		<path d="M40.2,34.7v3.7H26.7V21.6h13.2v3.7h-8.5v2.8h7.5v3.6h-7.5v3.1L40.2,34.7L40.2,34.7z"/>
		<path d="M43.6,36.9l1.6-3.5c1.5,1,3.6,1.7,5.5,1.7c2,0,2.7-0.6,2.7-1.4c0-2.7-9.6-0.7-9.6-7c0-3,2.4-5.4,7.4-5.4
			c2.2,0,4.4,0.5,6.1,1.5l-1.5,3.5c-1.6-0.9-3.2-1.3-4.7-1.3c-2,0-2.7,0.7-2.7,1.5c0,2.6,9.5,0.6,9.5,6.8c0,2.9-2.4,5.4-7.4,5.4
			C47.9,38.7,45.1,38,43.6,36.9z"/>
		<path d="M77.3,27.8c0,3.8-2.9,6.2-7.5,6.2h-2.9v4.4h-4.8V21.6h7.7C74.4,21.6,77.3,24,77.3,27.8z M72.5,27.8c0-1.6-1-2.5-3-2.5
			h-2.6v4.9h2.6C71.5,30.3,72.5,29.4,72.5,27.8z"/>
	</g>
</g>
</svg>
