<?xml version="1.0" encoding="utf-8"?>
<!-- Generator: Adobe Illustrator 23.1.1, SVG Export Plug-In . SVG Version: 6.00 Build 0)  -->
<svg version="1.1" id="Capa_1" xmlns="http://www.w3.org/2000/svg" xmlns:xlink="http://www.w3.org/1999/xlink" x="0px" y="0px"
	 viewBox="0 0 104 60" style="enable-background:new 0 0 104 60;" xml:space="preserve">
<style type="text/css">
	.st0{fill:#FFFFFF;}
</style>
<g id="ENG">
	<path id="_x32__1_" class="st0" d="M74,60H30C13.4,60,0,46.6,0,30l0,0C0,13.4,13.4,0,30,0h44c16.6,0,30,13.4,30,30l0,0
		C104,46.6,90.6,60,74,60z"/>
	<g id="_x31_">
		<path d="M37.9,34.7v3.7H24.4V21.6h13.2v3.7h-8.5v2.8h7.5v3.6h-7.5v3.1L37.9,34.7L37.9,34.7z"/>
		<path d="M58.5,21.6v16.8h-3.9l-7.4-9v9h-4.7V21.6h3.9l7.4,9v-9H58.5z"/>
		<path d="M75,29.6h4.2v7c-1.9,1.4-4.6,2.1-7.1,2.1c-5.4,0-9.3-3.6-9.3-8.7s3.9-8.7,9.4-8.7c3.1,0,5.7,1.1,7.3,3.1l-3,2.7
			c-1.2-1.3-2.5-1.9-4.1-1.9c-2.9,0-4.8,1.9-4.8,4.8c0,2.8,1.9,4.8,4.8,4.8c0.9,0,1.7-0.2,2.6-0.6V29.6z"/>
	</g>
</g>
</svg>
